<svg width="18" height="17" viewBox="0 0 18 17" fill="none" xmlns="http://www.w3.org/2000/svg">
<path d="M8.99996 0.666504C4.39579 0.666504 0.666627 4.39567 0.666627 8.99984C0.665682 10.7492 1.21564 12.4545 2.23847 13.8737C3.26131 15.293 4.70508 16.3541 6.36496 16.9065C6.78163 16.979 6.93746 16.729 6.93746 16.5098C6.93746 16.3123 6.92663 15.6565 6.92663 14.9582C4.83329 15.344 4.29163 14.4482 4.12496 13.979C4.03079 13.739 3.62496 12.9998 3.27079 12.8015C2.97913 12.6457 2.56246 12.2598 3.25996 12.2498C3.91663 12.239 4.38496 12.854 4.54163 13.104C5.29163 14.364 6.48996 14.0098 6.96829 13.7915C7.04163 13.2498 7.25996 12.8857 7.49996 12.6773C5.64579 12.469 3.70829 11.7498 3.70829 8.56234C3.70829 7.65567 4.03079 6.9065 4.56246 6.32234C4.47913 6.114 4.18746 5.25984 4.64579 4.114C4.64579 4.114 5.34329 3.89567 6.93746 4.969C7.61585 4.78072 8.31677 4.68596 9.02079 4.68734C9.72913 4.68734 10.4375 4.78067 11.1041 4.96817C12.6975 3.88484 13.3958 4.11484 13.3958 4.11484C13.8541 5.26067 13.5625 6.11484 13.4791 6.32317C14.01 6.9065 14.3333 7.64567 14.3333 8.56234C14.3333 11.7607 12.3858 12.469 10.5316 12.6773C10.8333 12.9373 11.0941 13.4373 11.0941 14.219C11.0941 15.3332 11.0833 16.229 11.0833 16.5107C11.0833 16.729 11.24 16.989 11.6566 16.9057C13.3108 16.3472 14.7482 15.284 15.7665 13.8658C16.7849 12.4476 17.3328 10.7458 17.3333 8.99984C17.3333 4.39567 13.6041 0.666504 8.99996 0.666504Z" fill="#3B5999"/>
</svg>
