<svg width="17" height="18" viewBox="0 0 17 18" fill="none" xmlns="http://www.w3.org/2000/svg">
<path d="M1.55329 5.25817C2.24663 3.87754 3.31027 2.71693 4.62532 1.90606C5.94037 1.09519 7.45501 0.666018 8.99996 0.666504C11.2458 0.666504 13.1325 1.4915 14.575 2.83734L12.1858 5.22734C11.3216 4.4015 10.2233 3.98067 8.99996 3.98067C6.82913 3.98067 4.99163 5.44734 4.33746 7.41651C4.17079 7.91651 4.07579 8.44984 4.07579 8.99984C4.07579 9.54984 4.17079 10.0832 4.33746 10.5832C4.99246 12.5532 6.82913 14.019 8.99996 14.019C10.1208 14.019 11.075 13.7232 11.8216 13.2232C12.2545 12.9382 12.6251 12.5684 12.911 12.1361C13.1969 11.7038 13.3921 11.2181 13.485 10.7082H8.99996V7.48484H16.8483C16.9466 8.02984 17 8.59817 17 9.18901C17 11.7273 16.0916 13.864 14.515 15.314C13.1366 16.5873 11.25 17.3332 8.99996 17.3332C7.90549 17.3336 6.82166 17.1184 5.81041 16.6997C4.79917 16.2811 3.88034 15.6673 3.10643 14.8934C2.33252 14.1195 1.71871 13.2006 1.30007 12.1894C0.881438 11.1781 0.666189 10.0943 0.666627 8.99984C0.666627 7.65484 0.988293 6.38317 1.55329 5.25817Z" fill="#3B5999"/>
</svg>
